<?xml version="1.0" encoding="UTF-8"?>
<svg id="Logo_C_su_B" data-name="Logo C su B" xmlns="http://www.w3.org/2000/svg" viewBox="0 0 1496.54 595.28">
  <defs>
    <style>
      .cls-1 {
        fill: #91c362;
      }

      .cls-2 {
        fill: #91328c;
      }

      .cls-3 {
        fill: #3063de;
      }

      .cls-4 {
        fill: #69bfab;
      }

      .cls-5 {
        fill: #ff0082;
      }

      .cls-6 {
        fill: #e63246;
      }
    </style>
  </defs>
  <path class="cls-1" d="M289.76,186.04h-65.39c-21.27,0-38.58,17.31-38.58,38.58v149.07c0,21.27,17.31,38.58,38.58,38.58s38.58-17.31,38.58-38.58v-45.91h26.81c39.08,0,70.87-31.79,70.87-70.87s-31.79-70.87-70.87-70.87ZM191.79,224.62c0-17.97,14.62-32.58,32.58-32.58h32.58v129.74h-65.17v-97.16ZM256.95,373.69c0,17.97-14.62,32.58-32.58,32.58s-32.58-14.62-32.58-32.58v-45.91h65.17v45.91ZM289.76,321.78h-26.81v-129.74h26.81c35.77,0,64.87,29.1,64.87,64.87s-29.1,64.87-64.87,64.87Z"/>
  <path class="cls-2" d="M837.73,217.91c0-17.57-14.29-31.86-31.87-31.86h-84.92c-32.01,0-58.06,26.04-58.06,58.06,0,22.8,13.22,42.57,32.4,52.06h-32.4v84.25c0,17.57,14.29,31.86,31.87,31.86h84.92c32.01,0,58.06-26.04,58.06-58.06,0-22.8-13.22-42.57-32.4-52.06h32.4v-84.25ZM831.73,354.22c0,28.7-23.35,52.06-52.06,52.06h-84.92c-14.26,0-25.87-11.6-25.87-25.86v-78.25h110.79c28.7,0,52.06,23.35,52.06,52.06ZM831.73,296.16h-110.79c-28.71,0-52.06-23.35-52.06-52.06s23.35-52.06,52.06-52.06h84.92c14.26,0,25.87,11.6,25.87,25.86v78.25Z"/>
  <path class="cls-3" d="M600.35,412.27c-21.27,0-38.58-17.31-38.58-38.58v-149.07c0-21.27,17.31-38.58,38.58-38.58s38.58,17.31,38.58,38.58v149.07c0,21.27-17.31,38.58-38.58,38.58ZM600.35,192.04c-17.97,0-32.58,14.62-32.58,32.58v149.07c0,17.97,14.62,32.58,32.58,32.58s32.58-14.62,32.58-32.58v-149.07c0-17.97-14.62-32.58-32.58-32.58Z"/>
  <path class="cls-6" d="M1307.57,357.43l-70.03-148.02c-6.62-13.99-20.62-22.15-35.16-22.07-14.55-.09-28.55,8.08-35.17,22.07l-70.03,148.02c-4.41,9.32-4.92,19.79-1.45,29.49,3.47,9.7,10.51,17.47,19.83,21.88,5.24,2.48,10.84,3.73,16.47,3.73,4.38,0,8.77-.76,13.02-2.27,9.7-3.47,17.47-10.51,21.88-19.83l16.67-35.23h37.55l16.67,35.23c4.41,9.32,12.18,16.36,21.88,19.83,4.25,1.52,8.64,2.27,13.02,2.27,5.63,0,11.23-1.25,16.47-3.73,9.32-4.41,16.36-12.18,19.83-21.88,3.47-9.7,2.96-20.18-1.45-29.49ZM1224.96,349.21l-19.25-40.7,11.58-24.47h10.45c17.97,0,32.58,14.62,32.58,32.58s-14.62,32.58-32.58,32.58h-2.77ZM1202.38,301.49l-8.26-17.45h16.51l-8.26,17.45ZM1177.03,349.21c-17.97,0-32.58-14.62-32.58-32.58s14.62-32.58,32.58-32.58h10.45l11.58,24.47-19.25,40.7h-2.77ZM1191.29,278.04l-18.07-38.19c-7.68-16.24-.72-35.7,15.52-43.39,4.41-2.09,9.06-3.09,13.64-3.12,4.59.03,9.24,1.03,13.65,3.12,7.87,3.72,13.81,10.29,16.75,18.48,2.93,8.2,2.5,17.04-1.23,24.91l-18.07,38.19h-22.19ZM1161.52,387.87c-3.72,7.87-10.28,13.81-18.48,16.75-8.2,2.93-17.04,2.5-24.91-1.23-7.87-3.72-13.81-10.28-16.75-18.48-2.93-8.19-2.5-17.04,1.23-24.91l61.66-130.33c.42,4.31,1.57,8.62,3.52,12.75l16.85,35.63h-7.61c-21.27,0-38.58,17.31-38.58,38.58s17.27,38.55,38.52,38.58l-15.45,32.66ZM1186.45,349.21l15.94-33.68,15.94,33.68h-31.87ZM1303.38,384.91c-2.93,8.2-8.88,14.76-16.75,18.48-7.87,3.72-16.71,4.16-24.91,1.23-8.19-2.93-14.76-8.88-18.48-16.75l-15.45-32.66c21.25-.03,38.52-17.33,38.52-38.58s-17.31-38.58-38.58-38.58h-7.61l16.85-35.63c1.92-4.07,3.11-8.36,3.54-12.71l61.64,130.29c3.72,7.87,4.16,16.71,1.23,24.91Z"/>
  <path class="cls-5" d="M1078.41,211.97c-.02-.05-.04-.11-.06-.16-.16-.45-.33-.89-.5-1.32-.07-.19-.14-.37-.22-.56-.13-.31-.26-.61-.4-.92-.14-.31-.28-.62-.42-.93-.08-.17-.17-.34-.26-.52-.21-.43-.42-.85-.65-1.27-.03-.05-.05-.1-.08-.14-1.72-3.16-3.91-6.13-6.58-8.8-2.65-2.65-5.6-4.82-8.73-6.54-.09-.05-.17-.1-.26-.14-.38-.2-.76-.4-1.15-.59-.22-.11-.43-.22-.65-.32-.26-.12-.52-.24-.79-.36-.35-.16-.71-.31-1.07-.46-.13-.05-.26-.1-.39-.15-4.42-1.76-9.22-2.74-14.26-2.74s-9.87.99-14.3,2.76c-.11.04-.23.09-.34.13-.38.15-.75.32-1.12.48-.25.11-.49.22-.74.33-.23.11-.47.23-.7.34-.37.18-.74.37-1.1.56-.1.06-.2.11-.31.17-3.12,1.71-6.05,3.88-8.69,6.52l-44.02,44.02-44.02-44.02c-5.42-5.42-12.17-9.02-19.51-10.52,0,0,0,0,0,0-.49-.1-.99-.19-1.49-.27-.16-.03-.31-.06-.47-.08-.33-.05-.66-.08-.98-.13-.33-.04-.65-.09-.98-.12-.1,0-.19-.01-.29-.02-1.17-.11-2.36-.17-3.56-.17s-2.44.06-3.64.18c-.07,0-.14,0-.21.02-.35.03-.7.08-1.05.13-.3.04-.61.07-.91.12-.18.03-.36.06-.53.09-.47.08-.95.16-1.42.25-.02,0-.05.01-.07.02-7.32,1.5-14.05,5.1-19.46,10.51-6.31,6.31-10.15,14.41-11.08,23.15,0,.07-.02.13-.02.2-.05.51-.09,1.03-.12,1.55,0,.14-.02.28-.03.42-.03.61-.04,1.23-.05,1.84,0,.04,0,.08,0,.12v149.07c0,21.27,17.31,38.58,38.58,38.58s38.58-17.31,38.58-38.58v-55.92l3.89,3.89c.49.55.99,1.08,1.51,1.6h0c7.29,7.29,16.98,11.3,27.28,11.3,3.11,0,6.17-.37,9.12-1.08.06-.01.12-.03.19-.04.3-.07.61-.16.91-.24.33-.09.67-.18,1-.28.05-.01.1-.03.15-.05,5.86-1.78,11.39-4.98,16.01-9.6.52-.52,1.02-1.06,1.51-1.6l3.89-3.89v55.92c0,21.27,17.31,38.58,38.58,38.58s38.58-17.31,38.58-38.58v-149.07c0-4.43-.76-8.69-2.14-12.65ZM993.65,319.02c-6.34,6.34-14.66,9.51-22.99,9.53-8.33-.01-16.65-3.19-22.99-9.53l-1.46-1.46c-5.28-5.96-8.18-13.55-8.18-21.58,0-8.7,3.39-16.88,9.54-23.04l23.09-23.09,23.09,23.09c6.15,6.15,9.54,14.34,9.54,23.04,0,8.03-2.89,15.62-8.18,21.58l-1.46,1.46ZM868.58,213.94s.03-.09.05-.14c.13-.38.28-.75.42-1.12.06-.16.12-.32.19-.47.11-.26.22-.52.33-.77.12-.26.23-.53.36-.79.07-.15.14-.29.22-.44.18-.36.36-.72.55-1.07.02-.04.05-.08.07-.12,2.98-5.45,7.48-9.95,12.92-12.95.08-.04.15-.09.23-.13.31-.17.63-.33.95-.49.19-.09.37-.19.56-.28.21-.1.43-.2.65-.29.3-.14.61-.27.92-.4.1-.04.21-.08.31-.12,3.86-1.53,7.96-2.3,12.06-2.3s8.22.77,12.09,2.32c.08.03.17.07.25.1.33.13.65.28.97.42.2.09.4.18.6.27.21.1.41.2.62.3.3.15.61.3.9.46.09.05.19.11.28.16,10.05,5.56,16.87,16.26,16.87,28.53v78.67l-55.62-55.62c-9.11-9.11-11.68-22.31-7.73-33.73ZM1009.39,224.62c0-15.69,11.15-28.82,25.94-31.9.03,0,.07-.02.1-.02.38-.08.76-.14,1.14-.2.17-.03.34-.06.51-.09.23-.03.46-.06.69-.09.32-.04.65-.09.97-.12,0,0,.02,0,.02,0,1.06-.1,2.13-.16,3.21-.16s2.15.05,3.21.16c0,0,.02,0,.03,0,.32.03.64.08.97.12.23.03.46.05.69.09.17.03.33.06.5.09.39.06.77.13,1.15.21.03,0,.06.01.09.02,13.68,2.84,24.24,14.28,25.76,28.4,0,.06.02.13.02.19.04.43.07.86.1,1.3,0,.12.02.24.03.36.03.51.04,1.02.04,1.54,0,.04,0,.08,0,.12,0,8.7-3.39,16.88-9.54,23.04l-55.62,55.62v-78.67ZM1004.33,216.19c-.61,2.72-.94,5.53-.94,8.43v50.84c-1.53-2.42-3.32-4.69-5.39-6.76l-23.09-23.09,29.42-29.42ZM943.33,268.7c-2.07,2.07-3.87,4.34-5.39,6.76v-50.84c0-2.9-.33-5.72-.94-8.43l29.42,29.42-23.09,23.09ZM931.94,373.69c0,17.97-14.62,32.58-32.58,32.58s-32.58-14.62-32.58-32.58v-128.4c1.51,2.36,3.27,4.58,5.3,6.61l59.86,59.86v61.92ZM1041.97,406.27c-17.97,0-32.58-14.62-32.58-32.58v-61.92l59.86-59.86c2.05-2.05,3.81-4.28,5.3-6.63v128.41c0,17.97-14.62,32.58-32.58,32.58Z"/>
  <path class="cls-4" d="M506.37,319.7c6.34-3.32,12.14-7.56,17.25-12.67,13.39-13.39,20.76-31.18,20.76-50.11,0-39.08-31.79-70.87-70.87-70.87h-65.39c-21.27,0-38.58,17.31-38.58,38.58v149.07c0,21.27,17.31,38.58,38.58,38.58s38.58-17.31,38.58-38.58v-4.55l31.82,31.82c7.52,7.52,17.4,11.28,27.28,11.28s19.76-3.76,27.28-11.28c15.04-15.04,15.04-39.52,0-54.56l-26.71-26.71ZM473.5,192.05c35.77,0,64.87,29.1,64.87,64.87,0,17.33-6.75,33.62-19,45.87-5.12,5.12-11,9.3-17.47,12.45l-51.79-51.79c-1.09-1.09-2.24-2.09-3.42-3.02v-68.37h26.81ZM407.81,321.79l-8.03-8.03c-6.15-6.15-9.54-14.34-9.54-23.04s3.39-16.89,9.54-23.04,14.7-9.53,23.04-9.53c6.23,0,12.46,1.77,17.86,5.32v58.32h-32.88ZM440.69,327.79v26.88l-26.88-26.88h26.88ZM446.69,268.51l49.27,49.27c-7.17,2.65-14.7,4.01-22.46,4.01h-26.81v-53.28ZM375.53,224.63c0-17.96,14.62-32.58,32.58-32.58h32.58v64.48c-14.54-7.59-32.95-5.28-45.15,6.92-7.29,7.29-11.3,16.98-11.3,27.28s4.01,19.99,11.3,27.28l3.78,3.78h-23.8v-97.16ZM440.69,373.7c0,17.96-14.62,32.58-32.58,32.58s-32.58-14.62-32.58-32.58v-45.91h29.8l35.36,35.36v10.55ZM528.84,396.73c-12.7,12.7-33.38,12.7-46.08,0l-36.06-36.06v-32.88h26.81c9.4,0,18.49-1.83,27.08-5.39l28.25,28.25c12.7,12.7,12.7,33.38,0,46.08Z"/>
</svg>