<?xml version="1.0" encoding="UTF-8"?>
<svg id="Logo_C_su_B" data-name="Logo C su B" xmlns="http://www.w3.org/2000/svg" viewBox="0 0 1496.54 595.28">
  <defs>
    <style>
      .cls-1 {
        fill: #b9367e;
      }

      .cls-2 {
        fill: #69c0ac;
      }

      .cls-3 {
        fill: #ea5160;
      }

      .cls-4 {
        fill: #8968aa;
      }

      .cls-5 {
        fill: #93c462;
      }

      .cls-6 {
        fill: #6884c2;
      }
    </style>
  </defs>
  <path class="cls-5" d="M224.1,410.63c-21.27,0-38.58-17.31-38.58-38.58v-149.07c0-21.27,17.31-38.58,38.58-38.58h38.58v187.65c0,21.27-17.31,38.58-38.58,38.58ZM224.1,190.4c-17.97,0-32.58,14.62-32.58,32.58v149.07c0,17.97,14.62,32.58,32.58,32.58s32.58-14.62,32.58-32.58v-181.65h-32.58Z"/>
  <path class="cls-5" d="M289.49,326.14h-103.97v-103.16c0-21.27,17.31-38.58,38.58-38.58h65.39c39.08,0,70.87,31.79,70.87,70.87s-31.79,70.87-70.87,70.87ZM191.52,320.14h97.97c35.77,0,64.87-29.1,64.87-64.87s-29.1-64.87-64.87-64.87h-65.39c-17.97,0-32.58,14.62-32.58,32.58v97.16Z"/>
  <path class="cls-4" d="M837.47,300.51h-116.79c-32.01,0-58.06-26.04-58.06-58.06s26.04-58.06,58.06-58.06h84.92c17.57,0,31.87,14.29,31.87,31.86v84.25ZM720.68,190.4c-28.71,0-52.06,23.35-52.06,52.06s23.35,52.06,52.06,52.06h110.79v-78.25c0-14.26-11.6-25.86-25.87-25.86h-84.92Z"/>
  <path class="cls-4" d="M779.41,410.63h-84.92c-17.57,0-31.87-14.29-31.87-31.86v-84.25h116.79c32.01,0,58.06,26.04,58.06,58.06s-26.04,58.06-58.06,58.06ZM668.62,300.51v78.25c0,14.26,11.6,25.86,25.87,25.86h84.92c28.7,0,52.06-23.35,52.06-52.06s-23.35-52.06-52.06-52.06h-110.79Z"/>
  <path class="cls-2" d="M407.84,410.63c-21.27,0-38.58-17.31-38.58-38.58v-149.07c0-21.27,17.31-38.58,38.58-38.58h38.58v187.65c0,21.27-17.31,38.58-38.58,38.58ZM407.84,190.4c-17.96,0-32.58,14.62-32.58,32.58v149.07c0,17.96,14.62,32.58,32.58,32.58s32.58-14.62,32.58-32.58v-181.65h-32.58Z"/>
  <path class="cls-6" d="M600.08,410.63c-21.27,0-38.58-17.31-38.58-38.58v-149.07c0-21.27,17.31-38.58,38.58-38.58s38.58,17.31,38.58,38.58v149.07c0,21.27-17.31,38.58-38.58,38.58ZM600.08,190.4c-17.97,0-32.58,14.62-32.58,32.58v149.07c0,17.97,14.62,32.58,32.58,32.58s32.58-14.62,32.58-32.58v-149.07c0-17.97-14.62-32.58-32.58-32.58Z"/>
  <path class="cls-3" d="M1227.46,353.56h-50.7c-21.27,0-38.58-17.31-38.58-38.58s17.31-38.58,38.58-38.58h50.7c21.27,0,38.58,17.31,38.58,38.58s-17.31,38.58-38.58,38.58ZM1176.76,282.4c-17.97,0-32.58,14.62-32.58,32.58s14.62,32.58,32.58,32.58h50.7c17.97,0,32.58-14.62,32.58-32.58s-14.62-32.58-32.58-32.58h-50.7Z"/>
  <path class="cls-2" d="M505.53,410.61c-9.88,0-19.76-3.76-27.28-11.28l-82.97-82.97c-7.29-7.29-11.3-16.98-11.3-27.28s4.01-19.99,11.3-27.28c15.04-15.04,39.52-15.04,54.56,0l82.97,82.97c15.04,15.04,15.04,39.52,0,54.56h0c-7.52,7.52-17.4,11.28-27.28,11.28ZM422.56,256.51c-8.34,0-16.69,3.18-23.04,9.53s-9.54,14.34-9.54,23.04,3.39,16.88,9.54,23.04l82.97,82.97c12.7,12.7,33.38,12.7,46.08,0h0c12.7-12.7,12.7-33.38,0-46.08l-82.97-82.97c-6.35-6.35-14.7-9.53-23.04-9.53Z"/>
  <path class="cls-3" d="M1131.77,410.89c-5.63,0-11.23-1.25-16.47-3.73-9.32-4.41-16.36-12.18-19.83-21.88-3.47-9.7-2.96-20.18,1.45-29.49l70.03-148.02c9.1-19.23,32.14-27.47,51.38-18.38,9.32,4.41,16.36,12.18,19.83,21.88s2.96,20.18-1.45,29.49l-70.03,148.02c-4.41,9.32-12.18,16.36-21.88,19.83-4.25,1.52-8.64,2.27-13.02,2.27ZM1201.88,191.69c-12.21,0-23.94,6.89-29.5,18.65l-70.03,148.02c-3.72,7.87-4.16,16.71-1.23,24.91,2.93,8.2,8.88,14.76,16.75,18.48,7.87,3.72,16.71,4.16,24.91,1.23,8.19-2.93,14.76-8.88,18.48-16.75l70.03-148.02c3.72-7.87,4.16-16.71,1.23-24.91-2.93-8.19-8.88-14.76-16.75-18.48-4.49-2.12-9.22-3.13-13.88-3.13Z"/>
  <path class="cls-3" d="M1272.45,410.89c-4.38,0-8.77-.76-13.02-2.27-9.7-3.47-17.47-10.51-21.88-19.83l-70.03-148.02c-9.1-19.23-.85-42.28,18.38-51.38,19.23-9.1,42.28-.85,51.38,18.38l70.03,148.02c4.41,9.32,4.92,19.79,1.45,29.49-3.47,9.7-10.51,17.47-19.83,21.88-5.24,2.48-10.85,3.73-16.47,3.73ZM1202.35,191.69c-4.66,0-9.39,1-13.88,3.13-16.24,7.68-23.2,27.15-15.52,43.39l70.03,148.02c3.72,7.87,10.28,13.81,18.48,16.75,8.2,2.93,17.04,2.5,24.91-1.23,7.87-3.72,13.81-10.28,16.75-18.48,2.93-8.19,2.5-17.04-1.23-24.91l-70.03-148.02c-5.56-11.75-17.29-18.65-29.5-18.65Z"/>
  <path class="cls-1" d="M899.09,410.63c-21.27,0-38.58-17.31-38.58-38.58v-149.07c0-21.27,17.31-38.58,38.58-38.58s38.58,17.31,38.58,38.58v149.07c0,21.27-17.31,38.58-38.58,38.58ZM899.09,190.4c-17.97,0-32.58,14.62-32.58,32.58v149.07c0,17.97,14.62,32.58,32.58,32.58s32.58-14.62,32.58-32.58v-149.07c0-17.97-14.62-32.58-32.58-32.58Z"/>
  <path class="cls-1" d="M970.44,332.9c-9.88,0-19.76-3.76-27.28-11.28l-71.35-71.35c-7.29-7.29-11.3-16.98-11.3-27.28s4.01-19.99,11.3-27.28c7.29-7.29,16.98-11.3,27.28-11.3,10.31,0,19.99,4.01,27.28,11.3l71.35,71.35c7.29,7.29,11.3,16.98,11.3,27.28s-4.01,20-11.3,27.28h0c-7.52,7.52-17.4,11.28-27.28,11.28ZM899.09,190.42c-8.34,0-16.69,3.17-23.04,9.53-12.7,12.7-12.7,33.38,0,46.08l71.35,71.35c12.7,12.7,33.37,12.7,46.08,0,6.15-6.15,9.54-14.34,9.54-23.04s-3.39-16.88-9.54-23.04l-71.35-71.35c-6.35-6.35-14.7-9.53-23.04-9.53Z"/>
  <path class="cls-1" d="M1041.7,410.63c-21.27,0-38.58-17.31-38.58-38.58v-149.07c0-21.27,17.31-38.58,38.58-38.58s38.58,17.31,38.58,38.58v149.07c0,21.27-17.31,38.58-38.58,38.58ZM1041.7,190.4c-17.97,0-32.58,14.62-32.58,32.58v149.07c0,17.97,14.62,32.58,32.58,32.58s32.58-14.62,32.58-32.58v-149.07c0-17.97-14.62-32.58-32.58-32.58Z"/>
  <path class="cls-1" d="M970.35,332.92c-10.31,0-19.99-4.01-27.28-11.3h0c-7.29-7.29-11.3-16.98-11.3-27.28s4.01-19.99,11.3-27.28l71.35-71.35c15.04-15.04,39.52-15.04,54.56,0,15.04,15.04,15.04,39.52,0,54.56l-71.35,71.35c-7.29,7.29-16.98,11.3-27.28,11.3ZM947.31,317.38c12.71,12.7,33.38,12.7,46.08,0l71.35-71.35c6.15-6.15,9.54-14.34,9.54-23.04s-3.39-16.88-9.54-23.04c-6.15-6.15-14.34-9.54-23.04-9.54s-16.88,3.39-23.04,9.54l-71.35,71.35c-6.15,6.15-9.54,14.34-9.54,23.04s3.39,16.89,9.54,23.04h0Z"/>
  <path class="cls-2" d="M473.23,326.14h-103.97v-103.16c0-21.27,17.31-38.58,38.58-38.58h65.39c39.08,0,70.87,31.79,70.87,70.87,0,18.93-7.37,36.72-20.76,50.11-6.13,6.13-13.23,11.03-21.11,14.57-9.15,4.11-18.9,6.19-29,6.19ZM375.26,320.14h97.97c9.24,0,18.17-1.91,26.54-5.67,7.21-3.24,13.71-7.72,19.33-13.33,12.25-12.25,19-28.54,19-45.87,0-35.77-29.1-64.87-64.87-64.87h-65.39c-17.96,0-32.58,14.62-32.58,32.58v97.16Z"/>
</svg>